<svg id="svg" version="1.1" xmlns="http://www.w3.org/2000/svg" xmlns:xlink="http://www.w3.org/1999/xlink" width="400" height="400" viewBox="0, 0, 400,400"><g id="svgg"><path id="path0" d="M6.916 109.999 C 6.801 110.440,6.548 110.800,6.353 110.800 C 5.783 110.800,5.917 123.662,6.500 124.917 L 7.000 125.994 199.529 125.997 C 365.856 126.000,392.135 125.922,392.629 125.429 C 393.463 124.595,393.464 110.607,392.630 109.773 C 391.567 108.710,7.194 108.935,6.916 109.999 M391.829 110.571 C 392.277 111.019,392.400 112.537,392.400 117.600 C 392.400 122.663,392.277 124.181,391.829 124.629 C 391.335 125.122,365.174 125.200,199.636 125.200 L 8.015 125.200 7.764 124.200 C 7.626 123.650,7.398 123.200,7.257 123.200 C 7.115 123.200,7.000 120.770,7.000 117.800 C 7.000 114.830,7.135 112.400,7.300 112.400 C 7.465 112.400,7.600 112.122,7.600 111.783 C 7.600 111.444,7.825 110.911,8.100 110.598 C 8.857 109.738,390.969 109.712,391.829 110.571 M236.400 139.496 L 196.200 139.591 195.500 140.440 C 194.358 141.824,194.421 253.844,195.565 255.256 L 196.329 256.200 237.388 256.309 C 283.446 256.432,281.361 256.552,281.746 253.743 C 282.074 251.352,282.077 232.276,281.751 229.892 C 281.299 226.598,282.658 226.744,253.700 226.880 C 233.663 226.975,228.400 226.896,228.400 226.500 C 228.400 226.225,228.587 226.000,228.815 226.000 C 229.092 226.000,229.191 223.018,229.115 217.000 L 229.000 207.999 252.238 208.000 C 274.243 208.000,275.511 207.961,276.138 207.269 C 276.722 206.623,276.800 205.170,276.800 194.938 L 276.800 183.339 275.768 182.370 C 275.200 181.836,274.660 181.445,274.568 181.500 C 273.753 181.986,228.362 181.528,228.769 181.038 C 229.084 180.657,229.224 178.426,229.199 174.138 C 229.180 170.652,229.172 167.570,229.182 167.288 C 229.196 166.878,233.965 166.784,253.199 166.812 C 266.399 166.832,277.379 166.737,277.599 166.601 C 277.820 166.464,278.137 166.437,278.304 166.541 C 280.022 167.603,281.490 141.626,279.800 140.072 C 279.094 139.423,277.254 139.398,236.400 139.496 M9.397 140.100 C 9.049 141.077,9.030 145.209,9.114 200.020 L 9.200 255.439 10.528 255.920 C 12.251 256.543,39.421 256.600,41.041 255.984 C 43.229 255.152,43.174 255.701,43.187 234.900 C 43.196 222.292,43.061 215.600,42.800 215.600 C 42.580 215.600,42.400 215.330,42.400 215.000 C 42.400 214.467,60.126 214.004,66.045 214.382 C 66.619 214.419,67.749 214.078,68.557 213.624 C 69.381 213.161,70.764 212.796,71.712 212.791 C 72.769 212.786,73.774 212.490,74.400 212.000 C 74.950 211.570,75.893 211.214,76.497 211.209 C 77.153 211.204,77.794 210.879,78.093 210.400 C 78.368 209.960,78.989 209.600,79.473 209.600 C 79.957 209.600,80.469 209.413,80.610 209.184 C 80.751 208.955,81.527 208.347,82.334 207.832 C 85.332 205.919,89.496 201.377,90.378 199.058 C 90.599 198.476,90.965 198.000,91.190 198.000 C 91.416 198.000,91.600 197.640,91.600 197.200 C 91.600 196.760,91.780 196.400,92.000 196.400 C 92.220 196.400,92.400 196.040,92.400 195.600 C 92.400 195.160,92.580 194.800,92.800 194.800 C 93.020 194.800,93.200 194.361,93.200 193.824 C 93.200 193.287,93.380 192.736,93.600 192.600 C 93.820 192.464,94.000 191.823,94.000 191.176 C 94.000 190.529,94.160 190.000,94.356 190.000 C 94.767 190.000,95.151 188.035,95.411 184.600 C 95.511 183.280,95.792 181.560,96.035 180.777 C 96.871 178.086,95.491 162.474,94.354 161.771 C 94.159 161.651,94.000 161.201,94.000 160.771 C 94.000 160.341,93.823 159.677,93.606 159.295 C 93.390 158.913,92.655 157.340,91.972 155.800 C 89.870 151.054,86.819 147.580,81.704 144.109 C 80.967 143.609,80.207 143.200,80.015 143.200 C 79.823 143.200,78.770 142.750,77.675 142.200 C 76.580 141.650,75.215 141.200,74.642 141.200 C 74.069 141.200,73.600 141.057,73.600 140.883 C 73.600 139.544,9.872 138.767,9.397 140.100 M102.974 139.958 C 103.096 140.155,102.930 140.418,102.606 140.542 C 101.801 140.851,101.707 254.215,102.510 255.200 C 103.327 256.201,103.300 256.200,145.200 256.200 C 184.454 256.200,187.205 256.153,188.309 255.461 C 189.243 254.875,188.968 229.096,188.016 227.920 L 187.271 227.000 161.535 226.892 L 135.800 226.783 135.800 217.392 L 135.800 208.000 159.071 208.000 L 182.342 208.000 183.188 206.924 C 184.011 205.878,184.031 205.540,183.917 194.488 L 183.800 183.128 182.856 182.364 C 181.951 181.632,180.955 181.600,158.856 181.600 L 135.800 181.600 135.848 174.300 L 135.895 167.000 160.746 166.897 C 183.551 166.802,185.664 166.737,186.399 166.108 C 187.375 165.272,187.674 141.034,186.720 140.080 C 186.133 139.493,102.611 139.371,102.974 139.958 M289.149 140.261 C 288.184 141.424,288.347 254.518,289.314 255.486 C 289.976 256.147,291.184 256.200,305.581 256.200 L 321.133 256.200 321.979 255.224 C 322.819 254.255,322.825 254.100,322.783 232.424 L 322.742 210.600 323.795 210.471 C 324.374 210.400,325.068 210.524,325.336 210.747 C 325.604 210.969,326.433 211.134,327.177 211.113 C 328.113 211.086,328.747 211.341,329.230 211.937 C 329.614 212.412,330.082 212.800,330.270 212.800 C 330.457 212.800,331.056 213.520,331.600 214.400 C 332.144 215.280,332.726 216.000,332.894 216.000 C 333.062 216.000,333.204 216.315,333.209 216.700 C 333.214 217.085,333.570 217.850,334.000 218.400 C 334.430 218.950,334.786 219.681,334.791 220.025 C 334.796 220.368,335.160 221.036,335.600 221.508 C 336.040 221.980,336.400 222.742,336.400 223.200 C 336.400 223.658,336.760 224.420,337.200 224.892 C 337.640 225.364,338.001 226.032,338.001 226.375 C 338.002 226.719,338.362 227.589,338.801 228.310 C 339.241 229.030,339.600 229.941,339.600 230.334 C 339.600 230.727,339.960 231.436,340.400 231.908 C 340.840 232.380,341.200 233.112,341.200 233.534 C 341.200 233.957,341.451 234.510,341.758 234.765 C 342.065 235.020,342.435 235.862,342.580 236.635 C 342.725 237.409,343.103 238.141,343.420 238.263 C 343.736 238.384,343.904 238.633,343.791 238.814 C 343.679 238.996,343.762 239.253,343.976 239.385 C 344.190 239.517,344.277 239.855,344.169 240.136 C 344.061 240.417,344.339 241.069,344.787 241.585 C 345.234 242.100,345.600 242.831,345.600 243.207 C 345.600 243.584,345.960 244.350,346.400 244.909 C 346.840 245.469,347.200 246.279,347.200 246.709 C 347.200 247.140,347.558 247.948,347.996 248.504 C 348.434 249.061,348.849 249.887,348.918 250.340 C 348.987 250.794,349.349 251.502,349.722 251.914 C 350.095 252.326,350.400 253.022,350.400 253.462 C 350.400 253.901,350.864 254.697,351.432 255.230 L 352.464 256.200 368.532 256.324 C 391.125 256.498,390.642 256.677,386.932 249.500 C 386.392 248.455,386.064 247.600,386.202 247.600 C 386.341 247.600,386.082 247.077,385.627 246.438 C 385.172 245.799,384.800 244.972,384.800 244.600 C 384.800 244.228,384.466 243.446,384.058 242.862 C 383.650 242.278,383.200 241.318,383.058 240.728 C 382.915 240.138,382.529 239.386,382.199 239.057 C 381.870 238.727,381.600 237.994,381.600 237.429 C 381.600 236.863,381.465 236.399,381.300 236.397 C 380.894 236.393,380.000 234.414,380.000 233.520 C 380.000 233.124,379.820 232.800,379.600 232.800 C 379.380 232.800,379.200 232.530,379.200 232.200 C 379.200 231.870,379.020 231.600,378.800 231.600 C 378.580 231.600,378.400 231.094,378.400 230.475 C 378.400 229.857,378.040 228.964,377.600 228.492 C 377.160 228.020,376.800 227.216,376.800 226.705 C 376.800 226.194,376.440 225.517,376.000 225.200 C 375.560 224.883,375.200 224.228,375.200 223.745 C 375.200 222.939,373.397 218.868,372.833 218.400 C 372.701 218.290,372.238 217.525,371.805 216.700 C 371.372 215.875,370.879 215.200,370.709 215.200 C 370.539 215.200,370.445 215.061,370.500 214.892 C 370.597 214.593,370.156 213.975,368.700 212.371 C 368.315 211.947,368.088 211.600,368.196 211.600 C 368.304 211.600,368.079 211.222,367.696 210.760 C 366.090 208.821,364.855 207.600,364.502 207.600 C 364.294 207.600,363.798 207.240,363.400 206.800 C 363.002 206.360,362.344 206.000,361.938 206.000 C 361.532 206.000,361.200 205.833,361.200 205.628 C 361.200 205.423,360.795 205.186,360.300 205.100 C 359.495 204.961,359.527 204.912,360.600 204.636 C 362.321 204.193,365.310 202.703,365.884 202.000 C 366.154 201.670,366.380 201.547,366.387 201.727 C 366.405 202.173,368.728 200.525,370.199 199.024 C 370.859 198.351,371.534 197.845,371.699 197.900 C 371.865 197.955,372.000 197.846,372.000 197.658 C 372.000 197.471,372.405 196.864,372.900 196.310 C 374.661 194.341,375.200 193.584,375.200 193.084 C 375.200 192.805,375.560 192.317,376.000 192.000 C 376.440 191.683,376.800 191.131,376.800 190.774 C 376.800 190.416,377.121 189.833,377.514 189.478 C 377.906 189.123,378.272 188.247,378.326 187.532 C 378.381 186.817,378.645 186.092,378.913 185.922 C 379.181 185.752,379.220 185.604,379.000 185.594 C 378.780 185.584,378.915 185.392,379.300 185.168 C 379.816 184.868,380.000 184.245,380.000 182.804 C 380.000 181.728,380.189 180.731,380.419 180.588 C 380.650 180.446,380.792 180.030,380.734 179.665 C 380.677 179.299,380.873 177.876,381.169 176.503 C 381.724 173.932,381.596 170.641,380.778 166.400 C 380.544 165.190,380.253 163.390,380.130 162.400 C 380.007 161.410,379.568 160.122,379.153 159.538 C 378.739 158.954,378.400 157.959,378.400 157.327 C 378.400 156.635,378.081 155.947,377.600 155.600 C 377.160 155.283,376.800 154.624,376.800 154.135 C 376.800 153.647,376.616 153.133,376.391 152.994 C 376.166 152.855,375.385 151.856,374.656 150.773 C 373.927 149.690,373.211 148.923,373.065 149.068 C 372.919 149.214,372.800 149.106,372.800 148.827 C 372.800 148.354,371.492 146.988,369.710 145.600 C 367.673 144.013,363.773 142.133,361.297 141.544 C 360.254 141.296,359.040 140.948,358.600 140.770 C 356.001 139.722,352.149 139.600,321.629 139.600 C 292.415 139.600,289.651 139.656,289.149 140.261 M69.200 140.800 C 69.200 141.020,70.010 141.200,71.000 141.200 C 71.990 141.200,72.800 141.380,72.800 141.600 C 72.800 141.820,73.430 142.000,74.200 142.000 C 74.970 142.000,75.600 142.180,75.600 142.400 C 75.600 142.620,76.050 142.800,76.600 142.800 C 77.150 142.800,77.600 142.980,77.600 143.200 C 77.600 143.420,77.960 143.600,78.400 143.600 C 78.840 143.600,79.200 143.780,79.200 144.000 C 79.200 144.220,79.560 144.400,80.000 144.400 C 80.440 144.400,80.800 144.536,80.800 144.702 C 80.800 144.869,81.310 145.230,81.933 145.506 C 84.037 146.437,90.000 153.083,90.000 154.495 C 90.000 154.786,90.360 155.283,90.800 155.600 C 91.270 155.939,91.600 156.635,91.600 157.288 C 91.600 157.900,91.780 158.400,92.000 158.400 C 92.220 158.400,92.400 158.850,92.400 159.400 C 92.400 159.950,92.580 160.400,92.800 160.400 C 93.020 160.400,93.200 160.964,93.200 161.654 C 93.200 163.055,93.957 165.996,94.467 166.580 C 94.988 167.175,94.888 185.104,94.363 185.279 C 94.122 185.359,93.907 186.094,93.884 186.912 C 93.860 187.731,93.697 188.400,93.521 188.400 C 93.344 188.400,93.200 189.120,93.200 190.000 C 93.200 190.880,93.020 191.600,92.800 191.600 C 92.580 191.600,92.400 191.960,92.400 192.400 C 92.400 192.840,92.220 193.200,92.000 193.200 C 91.780 193.200,91.600 193.740,91.600 194.400 C 91.600 195.060,91.420 195.600,91.200 195.600 C 90.980 195.600,90.800 195.870,90.800 196.200 C 90.800 196.530,90.620 196.800,90.400 196.800 C 90.180 196.800,90.000 197.207,90.000 197.704 C 90.000 198.201,89.640 198.832,89.200 199.107 C 88.760 199.382,88.400 199.856,88.400 200.160 C 88.400 200.781,82.157 207.200,81.553 207.200 C 81.341 207.200,80.780 207.560,80.308 208.000 C 79.836 208.440,79.123 208.800,78.725 208.800 C 78.326 208.800,78.000 208.980,78.000 209.200 C 78.000 209.420,77.640 209.600,77.200 209.600 C 76.760 209.600,76.400 209.780,76.400 210.000 C 76.400 210.220,75.950 210.400,75.400 210.400 C 74.850 210.400,74.400 210.580,74.400 210.800 C 74.400 211.020,73.950 211.200,73.400 211.200 C 72.850 211.200,72.400 211.380,72.400 211.600 C 72.400 211.820,71.803 212.000,71.073 212.000 C 69.325 212.000,65.210 212.729,64.200 213.218 C 63.760 213.431,58.540 213.649,52.600 213.702 L 41.800 213.800 41.600 234.151 C 41.401 254.407,41.396 254.505,40.543 255.072 C 39.412 255.822,13.364 255.856,11.300 255.110 L 10.000 254.639 10.000 198.103 C 10.000 153.443,10.105 141.447,10.500 140.998 C 11.119 140.295,69.200 140.099,69.200 140.800 M185.595 141.089 C 186.907 142.212,186.838 163.561,185.519 164.790 C 184.649 165.600,184.306 165.611,160.050 165.594 C 143.984 165.583,135.323 165.717,135.059 165.981 C 134.656 166.384,134.651 181.435,135.053 182.085 C 135.160 182.258,145.469 182.400,157.962 182.400 C 179.984 182.400,180.698 182.424,181.383 183.181 C 182.370 184.272,182.441 205.616,181.460 206.597 C 180.948 207.109,177.631 207.208,157.932 207.297 L 135.000 207.400 134.893 217.373 C 134.833 222.936,134.945 227.505,135.147 227.707 C 135.355 227.915,146.035 228.047,160.370 228.018 C 185.054 227.969,185.241 227.974,186.416 228.811 L 187.600 229.654 187.600 242.040 C 187.600 253.474,187.546 254.444,186.900 254.673 C 186.515 254.810,185.930 255.119,185.600 255.361 C 184.718 256.006,105.312 255.584,104.200 254.928 C 103.109 254.285,102.519 142.335,103.600 141.133 C 104.542 140.087,184.375 140.044,185.595 141.089 M278.388 140.985 C 279.278 142.058,279.031 164.338,278.121 165.028 C 277.530 165.476,272.998 165.577,252.980 165.587 C 234.534 165.597,228.443 165.717,228.080 166.080 C 227.271 166.889,227.413 181.843,228.233 182.157 C 228.581 182.291,239.000 182.400,251.387 182.400 L 273.908 182.400 274.554 183.386 C 275.428 184.720,275.508 205.361,274.643 206.500 C 274.148 207.152,272.558 207.200,251.336 207.200 C 234.155 207.200,228.442 207.318,228.080 207.680 C 227.316 208.444,227.406 226.941,228.177 227.581 C 228.612 227.942,234.880 228.053,253.656 228.034 L 278.558 228.009 279.479 228.874 L 280.400 229.739 280.400 241.924 C 280.400 254.095,280.399 254.109,279.487 254.954 L 278.575 255.800 238.055 255.600 C 198.528 255.405,197.521 255.381,196.968 254.624 C 196.178 253.543,196.108 142.457,196.896 141.195 C 197.564 140.125,277.503 139.920,278.388 140.985 M352.568 140.748 C 352.686 140.940,353.642 141.206,354.692 141.339 C 355.741 141.472,357.545 141.698,358.700 141.841 C 359.855 141.985,360.800 142.259,360.800 142.451 C 360.800 142.643,361.329 142.800,361.976 142.800 C 362.623 142.800,363.264 142.980,363.400 143.200 C 363.536 143.420,363.997 143.600,364.424 143.600 C 364.851 143.600,365.200 143.780,365.200 144.000 C 365.200 144.220,365.393 144.400,365.628 144.400 C 366.794 144.400,373.600 150.183,373.600 151.174 C 373.600 151.408,373.780 151.600,374.000 151.600 C 374.220 151.600,374.400 151.870,374.400 152.200 C 374.400 152.530,374.580 152.800,374.800 152.800 C 375.020 152.800,375.200 153.160,375.200 153.600 C 375.200 154.040,375.380 154.400,375.600 154.400 C 375.820 154.400,376.000 154.670,376.000 155.000 C 376.000 155.330,376.180 155.600,376.400 155.600 C 376.620 155.600,376.800 156.050,376.800 156.600 C 376.800 157.150,376.980 157.600,377.200 157.600 C 377.420 157.600,377.600 157.960,377.600 158.400 C 377.600 158.840,377.792 159.200,378.027 159.200 C 378.262 159.200,378.354 159.515,378.232 159.900 C 378.110 160.285,378.278 161.116,378.605 161.746 C 378.932 162.376,379.200 163.381,379.200 163.979 C 379.200 164.577,379.303 165.169,379.428 165.294 C 379.774 165.640,379.844 179.600,379.500 179.600 C 379.335 179.600,379.200 180.320,379.200 181.200 C 379.200 182.080,379.020 182.800,378.800 182.800 C 378.580 182.800,378.400 183.520,378.400 184.400 C 378.400 185.280,378.265 186.001,378.100 186.003 C 377.741 186.007,376.800 187.944,376.800 188.680 C 376.800 188.966,376.664 189.200,376.498 189.200 C 376.331 189.200,375.937 189.783,375.621 190.496 C 374.024 194.104,368.618 199.798,365.100 201.579 C 364.495 201.885,364.000 202.264,364.000 202.422 C 364.000 202.580,363.180 202.832,362.177 202.983 C 361.123 203.141,360.256 203.510,360.122 203.858 C 359.967 204.264,359.584 204.382,358.946 204.222 C 358.359 204.075,358.000 204.161,358.000 204.448 C 358.000 205.127,359.263 205.973,360.300 205.987 C 360.795 205.994,361.200 206.150,361.200 206.332 C 361.200 206.515,361.679 206.920,362.264 207.232 C 364.139 208.232,366.733 211.069,369.077 214.683 C 370.332 216.617,371.503 218.260,371.679 218.333 C 371.856 218.407,372.004 218.767,372.009 219.133 C 372.014 219.500,372.370 220.250,372.800 220.800 C 373.230 221.350,373.586 221.989,373.591 222.220 C 373.605 222.892,374.571 224.793,374.900 224.797 C 375.065 224.799,375.200 225.340,375.200 226.000 C 375.200 226.660,375.336 227.200,375.502 227.200 C 375.669 227.200,376.029 227.740,376.302 228.400 C 376.576 229.060,377.024 230.140,377.298 230.800 C 377.571 231.460,377.951 232.000,378.140 232.000 C 378.330 232.000,378.384 232.265,378.260 232.588 C 378.136 232.912,378.296 233.439,378.617 233.760 C 378.938 234.081,379.200 234.626,379.200 234.971 C 379.200 235.317,379.380 235.600,379.600 235.600 C 379.820 235.600,380.000 236.050,380.000 236.600 C 380.000 237.150,380.135 237.601,380.300 237.603 C 380.706 237.607,381.600 239.586,381.600 240.480 C 381.600 240.876,381.780 241.200,382.000 241.200 C 382.220 241.200,382.400 241.560,382.400 242.000 C 382.400 242.440,382.580 242.800,382.800 242.800 C 383.020 242.800,383.200 243.034,383.200 243.320 C 383.200 244.056,384.141 245.993,384.500 245.997 C 384.665 245.999,384.800 246.290,384.800 246.646 C 384.800 247.001,385.135 247.946,385.545 248.746 C 389.247 255.968,390.104 255.588,370.025 255.633 C 358.913 255.658,353.774 255.534,353.475 255.235 C 353.236 254.996,352.806 254.800,352.520 254.800 C 352.234 254.800,352.000 254.440,352.000 254.000 C 352.000 253.560,351.865 253.199,351.700 253.197 C 351.341 253.193,350.400 251.256,350.400 250.520 C 350.400 250.234,350.228 250.000,350.018 250.000 C 349.808 250.000,349.519 249.376,349.376 248.614 C 349.233 247.852,348.865 247.020,348.558 246.765 C 348.251 246.510,348.000 246.054,348.000 245.751 C 348.000 245.448,347.826 245.200,347.613 245.200 C 347.399 245.200,347.337 244.908,347.474 244.550 C 347.624 244.160,347.460 243.753,347.062 243.531 C 346.698 243.327,346.400 242.893,346.400 242.567 C 346.400 242.240,345.950 241.085,345.400 240.000 C 344.850 238.915,344.400 237.751,344.400 237.413 C 344.400 237.076,344.220 236.800,344.000 236.800 C 343.780 236.800,343.600 236.530,343.600 236.200 C 343.600 235.870,343.420 235.600,343.200 235.600 C 342.980 235.600,342.800 235.150,342.800 234.600 C 342.800 234.050,342.620 233.600,342.400 233.600 C 342.180 233.600,342.000 233.240,342.000 232.800 C 342.000 232.360,341.820 232.000,341.600 232.000 C 341.380 232.000,341.200 231.640,341.200 231.200 C 341.200 230.760,341.020 230.400,340.800 230.400 C 340.580 230.400,340.400 230.040,340.400 229.600 C 340.400 229.160,340.220 228.800,340.000 228.800 C 339.780 228.800,339.600 228.350,339.600 227.800 C 339.600 227.250,339.420 226.800,339.200 226.800 C 338.980 226.800,338.800 226.440,338.800 226.000 C 338.800 225.560,338.620 225.200,338.400 225.200 C 338.180 225.200,338.000 224.966,338.000 224.680 C 338.000 223.944,337.059 222.007,336.700 222.003 C 336.535 222.001,336.400 221.640,336.400 221.200 C 336.400 220.760,336.220 220.400,336.000 220.400 C 335.780 220.400,335.600 220.040,335.600 219.600 C 335.600 219.160,335.420 218.800,335.200 218.800 C 334.980 218.800,334.800 218.440,334.800 218.000 C 334.800 217.560,334.620 217.200,334.400 217.200 C 334.180 217.200,334.000 216.930,334.000 216.600 C 334.000 216.270,333.820 216.000,333.600 216.000 C 333.380 216.000,333.200 215.653,333.200 215.230 C 333.200 214.213,329.404 210.400,328.392 210.400 C 327.956 210.400,327.600 210.238,327.600 210.040 C 327.600 208.596,321.629 208.663,321.554 210.108 C 321.528 210.598,321.466 211.180,321.415 211.400 C 321.364 211.620,321.294 221.475,321.261 233.300 C 321.212 250.643,321.099 254.800,320.680 254.800 C 320.394 254.800,319.958 255.002,319.711 255.249 C 318.940 256.020,292.161 255.724,290.951 254.931 L 290.000 254.308 290.000 197.834 C 290.000 154.443,290.111 141.249,290.480 140.880 C 291.057 140.303,352.213 140.174,352.568 140.748 M42.500 164.812 L 41.600 165.174 41.600 176.979 L 41.600 188.785 42.631 189.044 C 47.138 190.175,57.580 188.385,60.496 185.982 C 66.291 181.205,65.289 169.771,58.764 166.219 C 55.933 164.678,45.154 163.746,42.500 164.812 M322.100 164.812 L 321.200 165.174 321.200 175.338 C 321.200 183.819,321.298 185.583,321.791 185.993 C 322.909 186.921,337.598 186.311,341.126 185.190 C 349.639 182.486,351.212 170.071,343.542 166.117 C 340.642 164.622,324.950 163.667,322.100 164.812 M7.781 270.509 C 5.907 271.449,5.019 283.731,6.645 286.213 L 7.291 287.198 199.797 287.198 C 363.962 287.198,392.372 287.116,392.766 286.640 C 393.794 285.402,393.281 271.345,392.182 270.625 C 391.013 269.859,9.307 269.744,7.781 270.509 M391.920 272.080 C 392.568 272.728,392.594 285.026,391.949 285.717 C 391.594 286.096,112.543 286.303,8.100 286.001 C 7.825 286.001,7.600 285.730,7.600 285.400 C 7.600 285.070,7.455 284.800,7.278 284.800 C 7.101 284.800,6.966 282.280,6.978 279.200 C 6.990 276.120,7.135 273.600,7.300 273.600 C 7.465 273.600,7.600 273.255,7.600 272.833 C 7.600 272.412,7.825 271.976,8.100 271.865 C 9.293 271.384,391.438 271.598,391.920 272.080 " stroke="none" fill="#c3d8cc" fill-rule="evenodd"></path><path id="path1" d="M9.290 111.831 C 8.583 112.348,8.329 122.553,9.000 123.463 C 9.336 123.917,40.075 123.988,200.200 123.902 L 391.000 123.800 391.111 117.892 C 391.195 113.384,391.100 111.937,390.711 111.790 C 389.568 111.358,9.881 111.399,9.290 111.831 M11.385 142.100 C 11.280 142.375,11.241 167.620,11.297 198.200 L 11.400 253.800 25.800 253.800 L 40.200 253.800 40.400 233.520 C 40.557 217.648,40.713 213.127,41.119 212.720 C 41.509 212.329,44.544 212.138,53.319 211.950 C 65.456 211.691,69.001 211.288,73.760 209.626 C 81.357 206.973,88.120 200.416,90.701 193.200 C 90.976 192.430,91.370 191.440,91.575 191.000 C 93.525 186.823,94.209 172.902,92.803 166.000 C 90.032 152.396,82.848 144.952,70.044 142.421 C 64.912 141.407,11.759 141.116,11.385 142.100 M104.585 142.100 C 104.480 142.375,104.441 167.620,104.497 198.200 L 104.600 253.800 145.000 253.903 C 182.627 254.000,185.434 253.960,185.900 253.327 C 186.847 252.039,186.595 230.532,185.626 230.014 C 185.117 229.741,176.336 229.600,159.903 229.600 C 139.951 229.600,134.809 229.495,134.236 229.075 C 133.377 228.448,133.162 207.478,134.005 206.634 C 134.303 206.337,141.703 206.137,157.520 206.000 L 180.600 205.800 180.800 195.673 C 180.910 190.103,180.871 185.198,180.713 184.773 C 180.434 184.021,179.794 184.000,157.689 184.000 C 139.572 184.000,134.807 183.894,134.236 183.476 C 133.160 182.689,133.181 165.696,134.259 164.908 C 134.802 164.511,140.247 164.400,159.244 164.400 C 172.604 164.400,183.819 164.291,184.167 164.157 C 184.816 163.908,185.173 143.838,184.557 142.233 C 184.230 141.381,104.908 141.249,104.585 142.100 M197.785 142.098 C 197.680 142.374,197.641 167.620,197.697 198.200 L 197.800 253.800 238.000 254.000 C 260.607 254.112,278.419 254.047,278.700 253.851 C 279.405 253.359,279.424 230.784,278.720 230.080 C 278.357 229.717,272.094 229.600,252.982 229.600 C 229.020 229.600,227.690 229.562,227.062 228.869 C 226.007 227.703,226.067 207.626,227.128 206.665 C 227.783 206.072,230.151 205.996,250.828 205.903 L 273.800 205.800 273.800 195.000 L 273.800 184.200 250.828 184.097 C 230.151 184.004,227.783 183.928,227.128 183.335 C 226.017 182.329,226.017 166.071,227.128 165.065 C 227.785 164.471,230.276 164.396,252.628 164.303 L 277.400 164.200 277.400 153.000 L 277.400 141.800 237.688 141.698 C 206.130 141.617,197.937 141.699,197.785 142.098 M291.051 142.212 C 290.496 143.657,290.771 253.078,291.330 253.542 C 291.897 254.012,318.864 254.255,319.607 253.796 C 319.857 253.641,320.000 245.578,320.000 231.665 C 320.000 206.195,319.707 208.000,323.848 208.000 C 330.812 208.000,333.178 210.763,341.322 228.400 C 342.748 231.487,345.741 237.847,348.099 242.800 C 349.199 245.110,350.694 248.260,351.421 249.800 C 353.650 254.522,351.565 254.039,369.596 254.009 C 378.276 253.995,385.527 253.833,385.709 253.651 C 385.969 253.391,383.016 246.098,380.874 241.711 C 380.418 240.778,379.085 237.856,378.086 235.600 C 377.648 234.610,376.840 232.810,376.290 231.600 C 375.741 230.390,374.896 228.500,374.412 227.400 C 369.919 217.179,364.524 209.462,360.600 207.644 C 357.362 206.143,356.702 205.745,356.338 205.074 C 355.896 204.260,356.520 203.200,357.441 203.200 C 359.407 203.200,365.243 200.158,368.232 197.575 C 372.032 194.291,377.200 186.354,377.200 183.801 C 377.200 183.428,377.506 182.105,377.881 180.862 C 378.942 177.336,378.834 167.681,377.682 163.155 C 374.583 150.981,368.350 145.100,356.000 142.698 C 350.071 141.545,291.475 141.106,291.051 142.212 M54.996 163.787 C 68.941 166.455,69.092 186.466,55.191 189.732 C 52.366 190.396,41.484 190.129,40.938 189.383 C 39.938 188.016,40.176 165.024,41.200 164.000 C 42.213 162.987,50.171 162.864,54.996 163.787 M339.759 163.780 C 347.008 165.166,350.587 170.451,349.212 177.737 C 347.836 185.027,342.184 187.766,328.466 187.788 C 319.195 187.804,319.998 188.975,320.006 175.456 C 320.012 164.708,320.043 164.447,321.400 163.678 C 322.613 162.990,336.020 163.064,339.759 163.780 M8.973 273.244 C 8.488 274.029,8.544 284.421,9.035 284.829 C 9.310 285.057,83.149 285.162,200.241 285.100 L 391.000 285.000 391.000 279.000 L 391.000 273.000 200.124 272.900 C 60.340 272.826,9.174 272.918,8.973 273.244 " stroke="none" fill="#045b25" fill-rule="evenodd"></path><path id="path2" d="M8.489 111.136 C 8.103 111.382,8.006 113.002,8.089 117.830 L 8.200 124.200 199.800 124.200 L 391.400 124.200 391.400 117.600 L 391.400 111.000 200.200 110.906 C 95.040 110.854,8.770 110.958,8.489 111.136 M390.711 111.790 C 391.100 111.937,391.195 113.384,391.111 117.892 L 391.000 123.800 200.200 123.902 C 40.075 123.988,9.336 123.917,9.000 123.463 C 8.329 122.553,8.583 112.348,9.290 111.831 C 9.881 111.399,389.568 111.358,390.711 111.790 M12.300 141.127 C 11.695 141.196,11.017 141.594,10.794 142.011 C 10.062 143.380,10.461 253.941,11.200 254.409 C 12.335 255.126,39.839 254.904,40.571 254.171 C 41.126 253.617,41.200 251.198,41.200 233.620 C 41.200 218.166,41.312 213.607,41.700 213.291 C 41.999 213.048,46.711 212.803,53.400 212.683 C 67.695 212.427,71.004 211.883,77.442 208.730 C 82.241 206.380,87.686 201.274,89.312 197.600 C 89.556 197.050,89.960 196.330,90.211 196.000 C 93.708 191.401,95.405 174.012,93.252 164.835 C 90.393 152.644,83.914 145.392,73.108 142.289 C 70.375 141.504,69.054 141.446,51.200 141.326 C 40.750 141.255,27.970 141.153,22.800 141.099 C 17.630 141.044,12.905 141.057,12.300 141.127 M104.531 141.401 C 103.965 141.815,103.649 253.509,104.211 254.418 C 104.549 254.965,185.003 254.933,186.026 254.386 C 187.170 253.774,187.241 229.639,186.100 229.345 C 185.715 229.246,174.114 229.128,160.320 229.082 C 140.374 229.017,135.134 228.894,134.720 228.480 C 133.921 227.683,133.784 208.448,134.569 207.374 C 135.115 206.628,135.977 206.593,158.268 206.400 L 181.400 206.200 181.497 195.400 C 181.551 189.460,181.442 184.361,181.255 184.069 C 180.977 183.636,176.713 183.546,158.353 183.583 C 139.194 183.622,135.673 183.541,134.996 183.047 C 133.726 182.119,133.528 166.872,134.770 165.630 C 135.592 164.808,135.840 164.800,160.120 164.800 C 178.658 164.800,184.757 164.683,185.120 164.320 C 185.821 163.619,185.800 142.827,185.098 141.867 C 184.505 141.055,105.627 140.600,104.531 141.401 M197.546 141.523 C 196.671 142.136,196.345 252.403,197.214 254.026 C 197.678 254.893,277.840 255.267,279.200 254.409 C 280.044 253.876,280.328 231.002,279.505 229.876 C 279.005 229.192,277.640 229.156,253.988 229.186 C 231.821 229.215,228.898 229.148,228.100 228.587 C 226.787 227.665,226.670 207.512,227.974 206.814 C 228.481 206.543,236.517 206.400,251.294 206.400 C 268.296 206.400,273.958 206.282,274.320 205.920 C 275.082 205.158,274.996 184.661,274.228 184.024 C 273.801 183.669,268.005 183.558,251.328 183.585 C 231.573 183.616,228.896 183.547,228.100 182.988 C 226.694 181.999,226.691 166.402,228.097 165.417 C 228.889 164.862,231.823 164.791,253.142 164.806 C 270.800 164.819,277.439 164.700,277.845 164.363 C 278.472 163.842,278.676 142.654,278.063 141.689 C 277.579 140.925,198.632 140.762,197.546 141.523 M290.971 141.320 C 289.933 141.901,290.134 253.829,291.174 254.386 C 292.570 255.133,319.408 254.935,320.171 254.171 C 320.728 253.615,320.800 251.015,320.800 231.600 C 320.800 206.475,320.553 208.139,324.222 208.517 C 330.585 209.174,332.949 211.811,338.997 225.000 C 339.804 226.760,341.157 229.640,342.004 231.400 C 343.351 234.200,345.919 239.627,349.005 246.200 C 353.591 255.966,350.785 254.829,369.993 254.705 C 389.031 254.581,387.699 255.013,385.213 249.771 C 383.625 246.420,382.991 245.029,381.495 241.600 C 381.159 240.830,380.261 238.850,379.500 237.200 C 378.738 235.550,376.837 231.320,375.274 227.800 C 371.319 218.891,371.118 218.524,367.310 213.325 C 364.873 209.996,362.978 208.302,359.725 206.543 C 356.591 204.850,356.650 204.153,360.022 203.018 C 372.218 198.910,378.950 188.181,378.984 172.800 C 379.028 152.374,369.503 142.248,349.400 141.352 C 341.528 141.001,291.590 140.973,290.971 141.320 M70.044 142.421 C 82.848 144.952,90.032 152.396,92.803 166.000 C 94.209 172.902,93.525 186.823,91.575 191.000 C 91.370 191.440,90.976 192.430,90.701 193.200 C 88.120 200.416,81.357 206.973,73.760 209.626 C 69.001 211.288,65.456 211.691,53.319 211.950 C 44.544 212.138,41.509 212.329,41.119 212.720 C 40.713 213.127,40.557 217.648,40.400 233.520 L 40.200 253.800 25.800 253.800 L 11.400 253.800 11.297 198.200 C 11.241 167.620,11.280 142.375,11.385 142.100 C 11.759 141.116,64.912 141.407,70.044 142.421 M184.557 142.233 C 185.173 143.838,184.816 163.908,184.167 164.157 C 183.819 164.291,172.604 164.400,159.244 164.400 C 140.247 164.400,134.802 164.511,134.259 164.908 C 133.181 165.696,133.160 182.689,134.236 183.476 C 134.807 183.894,139.572 184.000,157.689 184.000 C 179.794 184.000,180.434 184.021,180.713 184.773 C 180.871 185.198,180.910 190.103,180.800 195.673 L 180.600 205.800 157.520 206.000 C 141.703 206.137,134.303 206.337,134.005 206.634 C 133.162 207.478,133.377 228.448,134.236 229.075 C 134.809 229.495,139.951 229.600,159.903 229.600 C 176.336 229.600,185.117 229.741,185.626 230.014 C 186.595 230.532,186.847 252.039,185.900 253.327 C 185.434 253.960,182.627 254.000,145.000 253.903 L 104.600 253.800 104.497 198.200 C 104.441 167.620,104.480 142.375,104.585 142.100 C 104.908 141.249,184.230 141.381,184.557 142.233 M277.400 153.000 L 277.400 164.200 252.628 164.303 C 230.276 164.396,227.785 164.471,227.128 165.065 C 226.017 166.071,226.017 182.329,227.128 183.335 C 227.783 183.928,230.151 184.004,250.828 184.097 L 273.800 184.200 273.800 195.000 L 273.800 205.800 250.828 205.903 C 230.151 205.996,227.783 206.072,227.128 206.665 C 226.067 207.626,226.007 227.703,227.062 228.869 C 227.690 229.562,229.020 229.600,252.982 229.600 C 272.094 229.600,278.357 229.717,278.720 230.080 C 279.424 230.784,279.405 253.359,278.700 253.851 C 278.419 254.047,260.607 254.112,238.000 254.000 L 197.800 253.800 197.697 198.200 C 197.641 167.620,197.680 142.374,197.785 142.098 C 197.937 141.699,206.130 141.617,237.688 141.698 L 277.400 141.800 277.400 153.000 M356.000 142.698 C 368.350 145.100,374.583 150.981,377.682 163.155 C 378.834 167.681,378.942 177.336,377.881 180.862 C 377.506 182.105,377.200 183.428,377.200 183.801 C 377.200 186.354,372.032 194.291,368.232 197.575 C 365.243 200.158,359.407 203.200,357.441 203.200 C 356.520 203.200,355.896 204.260,356.338 205.074 C 356.702 205.745,357.362 206.143,360.600 207.644 C 364.524 209.462,369.919 217.179,374.412 227.400 C 374.896 228.500,375.741 230.390,376.290 231.600 C 376.840 232.810,377.648 234.610,378.086 235.600 C 379.085 237.856,380.418 240.778,380.874 241.711 C 383.016 246.098,385.969 253.391,385.709 253.651 C 385.527 253.833,378.276 253.995,369.596 254.009 C 351.565 254.039,353.650 254.522,351.421 249.800 C 350.694 248.260,349.199 245.110,348.099 242.800 C 345.741 237.847,342.748 231.487,341.322 228.400 C 333.178 210.763,330.812 208.000,323.848 208.000 C 319.707 208.000,320.000 206.195,320.000 231.665 C 320.000 245.578,319.857 253.641,319.607 253.796 C 318.864 254.255,291.897 254.012,291.330 253.542 C 290.771 253.078,290.496 143.657,291.051 142.212 C 291.475 141.106,350.071 141.545,356.000 142.698 M8.994 198.800 C 8.994 228.610,9.042 240.805,9.100 225.900 C 9.158 210.995,9.158 186.605,9.100 171.700 C 9.042 156.795,8.994 168.990,8.994 198.800 M41.200 164.000 C 40.176 165.024,39.938 188.016,40.938 189.383 C 41.484 190.129,52.366 190.396,55.191 189.732 C 69.092 186.466,68.941 166.455,54.996 163.787 C 50.171 162.864,42.213 162.987,41.200 164.000 M321.400 163.678 C 320.043 164.447,320.012 164.708,320.006 175.456 C 319.998 188.975,319.195 187.804,328.466 187.788 C 342.184 187.766,347.836 185.027,349.212 177.737 C 350.587 170.451,347.008 165.166,339.759 163.780 C 336.020 163.064,322.613 162.990,321.400 163.678 M54.800 164.426 C 66.899 166.380,68.609 184.303,57.090 188.424 C 54.059 189.508,42.851 190.072,41.793 189.194 C 40.815 188.383,40.917 165.005,41.900 164.432 C 42.821 163.896,51.492 163.892,54.800 164.426 M339.553 164.420 C 345.899 165.450,348.600 168.669,348.600 175.200 C 348.600 181.963,345.881 184.901,338.200 186.439 C 334.360 187.207,322.387 187.216,321.463 186.451 C 320.487 185.643,320.456 165.601,321.429 164.629 C 322.186 163.871,335.245 163.721,339.553 164.420 M8.480 272.480 C 7.902 273.058,7.795 285.026,8.365 285.378 C 8.841 285.673,390.761 285.672,391.237 285.377 C 391.637 285.130,391.746 273.645,391.357 272.633 C 391.036 271.797,9.316 271.644,8.480 272.480 M391.000 279.000 L 391.000 285.000 200.241 285.100 C 83.149 285.162,9.310 285.057,9.035 284.829 C 8.544 284.421,8.488 274.029,8.973 273.244 C 9.174 272.918,60.340 272.826,200.124 272.900 L 391.000 273.000 391.000 279.000 " stroke="none" fill="#5c9474" fill-rule="evenodd"></path><path id="path3" d="M8.100 110.598 C 7.825 110.911,7.605 111.399,7.612 111.683 C 7.619 111.993,7.787 111.920,8.032 111.500 C 8.419 110.835,17.981 110.800,199.943 110.800 L 391.446 110.800 391.880 111.900 C 392.293 112.944,392.317 112.953,392.357 112.071 C 392.381 111.561,392.143 110.886,391.829 110.571 C 390.969 109.712,8.857 109.738,8.100 110.598 M7.000 117.800 C 7.000 120.770,7.135 123.200,7.300 123.200 C 7.465 123.200,7.600 120.770,7.600 117.800 C 7.600 114.830,7.465 112.400,7.300 112.400 C 7.135 112.400,7.000 114.830,7.000 117.800 M392.140 117.600 C 392.140 119.470,392.209 120.235,392.293 119.300 C 392.377 118.365,392.377 116.835,392.293 115.900 C 392.209 114.965,392.140 115.730,392.140 117.600 M391.733 123.748 C 391.509 124.148,390.713 124.620,389.963 124.797 L 388.600 125.118 389.929 125.159 C 391.325 125.202,392.577 124.331,392.302 123.507 C 392.197 123.191,391.997 123.276,391.733 123.748 M7.612 123.800 C 7.612 124.629,8.323 125.272,9.048 125.101 C 9.765 124.932,9.763 124.908,9.000 124.591 C 8.560 124.408,8.068 124.065,7.906 123.829 C 7.730 123.571,7.612 123.560,7.612 123.800 M105.100 125.100 C 157.075 125.156,242.125 125.156,294.100 125.100 C 346.075 125.044,303.550 124.998,199.600 124.998 C 95.650 124.998,53.125 125.044,105.100 125.100 M10.500 140.998 C 10.225 141.311,10.000 141.774,10.000 142.027 C 10.000 142.281,10.315 142.107,10.700 141.641 C 11.398 140.795,11.460 140.793,37.200 140.693 L 63.000 140.594 37.000 140.512 C 14.970 140.443,10.924 140.517,10.500 140.998 M65.000 140.800 C 66.790 141.256,69.200 141.256,69.200 140.800 C 69.200 140.568,68.065 140.420,66.500 140.447 C 64.414 140.484,64.073 140.564,65.000 140.800 M103.600 141.133 C 103.013 141.786,103.013 253.946,103.600 254.533 C 103.710 254.643,103.753 229.340,103.695 198.304 C 103.597 146.082,103.639 141.820,104.257 141.138 C 104.624 140.732,104.761 140.415,104.562 140.433 C 104.363 140.452,103.930 140.767,103.600 141.133 M144.932 140.796 C 183.876 140.995,184.879 141.019,185.432 141.776 C 186.266 142.916,186.266 163.084,185.432 164.224 C 184.884 164.973,184.035 165.007,160.932 165.206 L 137.000 165.412 160.825 165.506 C 184.314 165.599,184.661 165.589,185.525 164.784 C 186.839 163.560,186.902 142.208,185.595 141.089 C 184.844 140.446,182.150 140.406,144.895 140.496 L 105.000 140.592 144.932 140.796 M196.896 141.195 C 196.108 142.457,196.178 253.543,196.968 254.624 C 197.521 255.381,198.528 255.405,238.055 255.600 L 278.575 255.800 279.487 254.954 C 280.399 254.109,280.400 254.095,280.400 241.924 L 280.400 229.739 279.479 228.874 L 278.558 228.009 253.656 228.034 C 234.880 228.053,228.612 227.942,228.177 227.581 C 227.860 227.317,227.600 227.268,227.600 227.471 C 227.600 228.755,228.480 228.800,253.651 228.800 C 275.928 228.800,278.813 228.871,279.371 229.429 C 280.192 230.249,280.331 253.509,279.520 254.320 C 278.688 255.152,197.363 255.001,197.043 254.167 C 196.538 252.851,196.771 141.789,197.280 141.280 C 198.071 140.489,277.331 140.595,277.989 141.387 C 278.861 142.438,278.635 164.039,277.745 164.690 C 277.197 165.090,271.821 165.200,252.752 165.200 C 231.199 165.200,228.386 165.271,227.829 165.829 C 227.102 166.555,226.891 181.292,227.591 182.400 C 227.920 182.920,231.018 183.013,250.840 183.096 C 267.138 183.165,273.866 183.323,274.255 183.645 C 275.351 184.555,275.021 205.854,273.901 206.453 C 273.306 206.771,273.179 206.993,273.526 207.109 C 275.283 207.694,276.225 185.936,274.554 183.386 L 273.908 182.400 251.387 182.400 C 239.000 182.400,228.581 182.291,228.233 182.157 C 227.413 181.843,227.271 166.889,228.080 166.080 C 228.443 165.717,234.534 165.597,252.980 165.587 C 272.998 165.577,277.530 165.476,278.121 165.028 C 279.031 164.338,279.278 142.058,278.388 140.985 C 277.503 139.920,197.564 140.125,196.896 141.195 M290.480 140.880 C 290.216 141.144,290.003 141.729,290.006 142.180 C 290.011 142.914,290.065 142.895,290.518 142.000 L 291.023 141.000 317.212 140.796 L 343.400 140.591 317.180 140.496 C 297.212 140.423,290.846 140.514,290.480 140.880 M346.800 140.820 C 349.440 141.290,352.895 141.278,352.600 140.800 C 352.460 140.574,350.753 140.422,348.676 140.450 C 345.512 140.493,345.251 140.545,346.800 140.820 M71.400 141.809 C 72.500 142.115,73.458 142.373,73.529 142.382 C 73.599 142.392,73.387 142.130,73.057 141.800 C 72.720 141.463,71.787 141.212,70.929 141.227 L 69.400 141.254 71.400 141.809 M353.633 141.349 C 353.725 141.431,354.700 141.601,355.800 141.728 C 357.149 141.884,357.474 141.849,356.800 141.620 C 355.801 141.280,353.318 141.068,353.633 141.349 M74.200 142.400 C 74.336 142.620,74.707 142.800,75.024 142.800 C 75.341 142.800,75.600 142.620,75.600 142.400 C 75.600 142.180,75.229 142.000,74.776 142.000 C 74.323 142.000,74.064 142.180,74.200 142.400 M359.200 142.400 C 359.983 142.906,360.800 142.906,360.800 142.400 C 360.800 142.180,360.305 142.003,359.700 142.006 C 358.843 142.011,358.732 142.098,359.200 142.400 M76.400 143.200 C 77.176 143.701,77.600 143.701,77.600 143.200 C 77.600 142.980,77.195 142.803,76.700 142.806 C 75.972 142.811,75.915 142.886,76.400 143.200 M361.800 143.200 C 362.911 143.678,363.695 143.678,363.400 143.200 C 363.264 142.980,362.668 142.813,362.076 142.828 C 361.115 142.853,361.086 142.893,361.800 143.200 M78.000 143.790 C 78.000 143.992,80.210 145.200,80.580 145.200 C 80.701 145.200,80.800 145.020,80.800 144.800 C 80.800 144.580,80.440 144.400,80.000 144.400 C 79.560 144.400,79.200 144.220,79.200 144.000 C 79.200 143.780,78.930 143.600,78.600 143.600 C 78.270 143.600,78.000 143.685,78.000 143.790 M290.194 198.000 C 290.194 227.590,290.242 239.695,290.300 224.900 C 290.358 210.105,290.358 185.895,290.300 171.100 C 290.242 156.305,290.194 168.410,290.194 198.000 M365.600 144.558 C 365.600 144.645,366.482 145.283,367.561 145.975 C 369.527 147.237,372.667 150.318,373.497 151.801 C 373.744 152.243,374.086 152.438,374.270 152.242 C 374.451 152.049,374.375 151.810,374.100 151.712 C 373.825 151.614,373.600 151.357,373.600 151.141 C 373.600 150.584,369.884 147.034,367.804 145.603 C 366.143 144.460,365.600 144.203,365.600 144.558 M82.400 146.307 C 84.537 147.975,88.400 152.071,88.400 152.669 C 88.400 152.961,88.559 153.200,88.753 153.200 C 88.948 153.200,89.230 153.605,89.380 154.100 C 89.536 154.611,89.740 154.792,89.854 154.520 C 90.031 154.093,88.950 152.240,87.773 150.955 C 87.538 150.698,86.906 149.973,86.370 149.344 C 85.039 147.782,81.952 145.198,81.428 145.207 C 81.193 145.211,81.630 145.706,82.400 146.307 M374.400 153.156 C 374.400 153.725,375.972 155.453,375.987 154.900 C 375.994 154.625,375.820 154.400,375.600 154.400 C 375.380 154.400,375.200 154.040,375.200 153.600 C 375.200 153.160,375.020 152.800,374.800 152.800 C 374.580 152.800,374.400 152.960,374.400 153.156 M90.560 156.300 C 92.319 160.181,92.348 160.229,92.374 159.300 C 92.388 158.805,92.220 158.400,92.000 158.400 C 91.780 158.400,91.600 157.937,91.600 157.371 C 91.600 156.806,91.343 156.086,91.029 155.771 C 90.163 154.906,90.008 155.081,90.560 156.300 M376.216 156.500 C 376.545 157.597,377.600 158.806,377.600 158.086 C 377.600 157.819,377.420 157.600,377.200 157.600 C 376.980 157.600,376.800 157.150,376.800 156.600 C 376.800 156.050,376.608 155.600,376.373 155.600 C 376.117 155.600,376.054 155.960,376.216 156.500 M377.600 159.729 C 377.600 160.696,378.935 164.194,379.108 163.677 C 379.201 163.398,378.989 162.563,378.637 161.821 C 378.285 161.080,378.107 160.187,378.241 159.836 C 378.376 159.486,378.286 159.200,378.043 159.200 C 377.799 159.200,377.600 159.438,377.600 159.729 M92.406 160.700 C 92.424 161.577,93.188 162.159,93.194 161.300 C 93.197 160.805,93.020 160.400,92.800 160.400 C 92.580 160.400,92.403 160.535,92.406 160.700 M93.404 164.400 C 94.356 169.396,94.470 171.087,94.285 177.518 C 94.095 184.124,92.993 190.870,91.785 192.825 C 91.657 193.031,91.743 193.200,91.976 193.200 C 92.209 193.200,92.400 192.840,92.400 192.400 C 92.400 191.960,92.580 191.600,92.800 191.600 C 93.020 191.600,93.200 190.880,93.200 190.000 C 93.200 189.120,93.344 188.400,93.521 188.400 C 93.697 188.400,93.860 187.731,93.884 186.912 C 93.907 186.094,94.122 185.359,94.363 185.279 C 94.867 185.111,94.999 167.132,94.500 166.634 C 94.335 166.469,93.978 165.674,93.707 164.867 C 93.436 164.060,93.299 163.850,93.404 164.400 M41.643 164.948 C 41.320 165.338,41.220 168.851,41.300 177.048 L 41.413 188.600 41.506 176.887 L 41.600 165.174 42.500 164.812 C 43.109 164.568,43.190 164.443,42.749 164.425 C 42.391 164.411,41.893 164.647,41.643 164.948 M52.105 164.687 C 52.714 164.779,53.614 164.777,54.105 164.682 C 54.597 164.587,54.100 164.511,53.000 164.514 C 51.900 164.517,51.497 164.595,52.105 164.687 M336.905 164.687 C 337.514 164.779,338.414 164.777,338.905 164.682 C 339.397 164.587,338.900 164.511,337.800 164.514 C 336.700 164.517,336.297 164.595,336.905 164.687 M340.433 164.944 C 340.525 165.023,341.140 165.208,341.800 165.356 C 342.676 165.552,342.838 165.515,342.400 165.218 C 341.860 164.853,340.032 164.598,340.433 164.944 M379.171 167.712 L 379.342 170.600 379.638 168.200 C 379.842 166.547,379.789 165.648,379.467 165.312 C 379.110 164.939,379.040 165.503,379.171 167.712 M59.100 166.412 C 60.255 167.074,61.206 167.748,61.214 167.908 C 61.222 168.069,61.692 168.740,62.258 169.400 C 63.381 170.709,63.140 170.074,61.826 168.261 C 61.042 167.180,58.147 165.196,57.365 165.204 C 57.164 165.206,57.945 165.749,59.100 166.412 M134.880 165.680 C 134.616 165.944,134.413 166.439,134.428 166.780 C 134.448 167.214,134.549 167.163,134.765 166.609 C 134.935 166.174,135.507 165.697,136.037 165.549 C 136.873 165.315,136.892 165.274,136.180 165.240 C 135.729 165.218,135.144 165.416,134.880 165.680 M320.893 175.471 C 320.777 188.031,319.896 186.828,329.129 186.710 L 336.200 186.620 329.141 186.501 C 323.934 186.413,321.969 186.245,321.649 185.859 C 321.369 185.522,321.174 181.784,321.100 175.368 L 320.985 165.400 320.893 175.471 M343.200 165.779 C 343.200 165.889,343.750 166.264,344.423 166.612 C 345.095 166.960,346.175 168.079,346.823 169.100 C 347.470 170.121,348.000 170.768,348.000 170.538 C 348.000 169.719,345.596 166.818,344.408 166.204 C 343.744 165.861,343.200 165.669,343.200 165.779 M134.485 175.486 C 134.405 181.967,134.446 182.397,135.185 182.792 C 135.709 183.072,143.414 183.205,158.285 183.191 L 180.600 183.170 181.300 184.029 C 181.786 184.626,182.000 184.711,182.000 184.306 C 182.000 182.409,182.054 182.414,157.772 182.303 L 135.000 182.200 134.785 175.400 L 134.571 168.600 134.485 175.486 M348.493 175.200 C 348.493 175.970,348.575 176.285,348.676 175.900 C 348.776 175.515,348.776 174.885,348.676 174.500 C 348.575 174.115,348.493 174.430,348.493 175.200 M64.520 176.800 C 64.520 178.010,64.595 178.505,64.687 177.900 C 64.778 177.295,64.778 176.305,64.687 175.700 C 64.595 175.095,64.520 175.590,64.520 176.800 M379.090 178.000 C 378.939 179.870,378.550 182.120,378.225 183.000 C 377.528 184.889,377.445 186.000,378.000 186.000 C 378.220 186.000,378.400 185.280,378.400 184.400 C 378.400 183.520,378.580 182.800,378.800 182.800 C 379.020 182.800,379.200 182.095,379.200 181.233 C 379.200 180.372,379.394 179.602,379.631 179.523 C 379.928 179.424,379.954 178.634,379.713 176.990 L 379.364 174.600 379.090 178.000 M345.614 182.518 C 344.631 183.663,344.268 184.240,344.807 183.800 C 345.944 182.872,346.649 182.083,347.221 181.100 C 347.868 179.988,347.524 180.291,345.614 182.518 M62.475 183.637 C 61.974 184.508,60.825 185.756,59.922 186.411 C 59.019 187.065,58.425 187.600,58.602 187.600 C 59.688 187.600,64.118 182.784,63.552 182.219 C 63.461 182.128,62.977 182.766,62.475 183.637 M340.800 185.252 C 339.503 185.706,339.116 185.943,339.857 185.829 C 341.092 185.641,344.184 184.457,343.400 184.474 C 343.180 184.478,342.010 184.829,340.800 185.252 M376.629 187.543 C 375.893 188.968,375.861 189.200,376.400 189.200 C 376.620 189.200,376.800 188.876,376.800 188.480 C 376.800 188.084,377.013 187.547,377.273 187.287 C 377.534 187.026,377.637 186.704,377.503 186.569 C 377.369 186.435,376.976 186.873,376.629 187.543 M56.400 188.057 C 55.850 188.280,54.680 188.624,53.800 188.820 L 52.200 189.178 53.800 189.036 C 54.680 188.958,56.030 188.618,56.800 188.280 C 58.344 187.602,57.996 187.409,56.400 188.057 M42.137 189.294 C 42.392 189.456,44.490 189.564,46.800 189.534 C 51.512 189.474,50.854 189.284,45.337 189.113 C 43.323 189.051,41.883 189.132,42.137 189.294 M375.054 190.573 C 374.694 191.123,374.400 191.695,374.400 191.845 C 374.400 193.290,367.506 199.725,364.100 201.459 C 362.505 202.271,361.200 202.991,361.200 203.058 C 361.200 203.450,363.908 202.544,364.565 201.932 C 364.997 201.529,365.517 201.200,365.720 201.200 C 366.087 201.200,369.456 198.527,371.013 197.000 C 372.558 195.486,376.191 190.058,375.873 189.740 C 375.782 189.649,375.414 190.024,375.054 190.573 M91.108 194.383 C 90.831 195.367,90.997 195.937,91.432 195.501 C 91.560 195.373,91.601 194.848,91.524 194.334 L 91.384 193.400 91.108 194.383 M89.841 196.863 C 89.488 197.366,89.200 197.932,89.200 198.119 C 89.200 198.796,85.605 203.114,83.358 205.135 C 82.095 206.271,81.259 207.200,81.501 207.200 C 82.141 207.200,88.400 200.814,88.400 200.160 C 88.400 199.856,88.760 199.382,89.200 199.107 C 89.640 198.832,90.000 198.216,90.000 197.737 C 90.000 197.258,90.225 196.786,90.500 196.688 C 90.775 196.590,90.883 196.383,90.741 196.229 C 90.598 196.075,90.193 196.360,89.841 196.863 M359.095 203.477 C 358.707 203.578,358.493 203.827,358.619 204.030 C 358.973 204.604,359.889 204.466,360.145 203.800 C 360.381 203.184,360.306 203.161,359.095 203.477 M357.478 204.274 C 357.210 204.707,357.656 205.211,358.800 205.767 C 359.270 205.996,359.263 205.945,358.765 205.530 C 358.416 205.238,358.044 204.739,357.938 204.420 C 357.812 204.038,357.655 203.988,357.478 204.274 M181.081 206.237 C 180.283 207.307,180.523 207.535,181.461 206.596 C 181.793 206.264,182.005 205.831,181.932 205.633 C 181.859 205.436,181.477 205.707,181.081 206.237 M360.000 206.143 C 360.000 206.222,360.977 206.935,362.171 207.728 C 364.202 209.077,368.800 214.244,368.800 215.179 C 368.800 215.410,368.958 215.600,369.151 215.600 C 369.345 215.600,369.727 216.140,370.000 216.800 C 370.273 217.460,370.657 218.000,370.854 218.000 C 371.210 218.000,370.159 216.179,367.853 212.800 C 366.390 210.657,363.745 208.022,362.264 207.232 C 361.679 206.920,361.200 206.515,361.200 206.332 C 361.200 206.150,360.930 206.000,360.600 206.000 C 360.270 206.000,360.000 206.065,360.000 206.143 M146.300 207.100 C 152.295 207.162,162.105 207.162,168.100 207.100 C 174.095 207.038,169.190 206.987,157.200 206.987 C 145.210 206.987,140.305 207.038,146.300 207.100 M227.900 207.232 C 227.262 207.604,227.208 208.427,227.292 216.520 L 227.384 225.400 227.499 216.743 C 227.588 210.164,227.742 207.980,228.145 207.646 C 228.511 207.342,235.425 207.174,250.637 207.100 L 272.600 206.993 250.600 206.909 C 236.227 206.854,228.357 206.966,227.900 207.232 M79.700 207.775 C 78.843 208.170,78.461 208.814,79.100 208.787 C 79.523 208.769,80.978 207.635,80.771 207.484 C 80.677 207.416,80.195 207.546,79.700 207.775 M134.400 217.520 C 134.400 225.013,134.531 227.971,134.880 228.320 C 135.243 228.683,141.506 228.800,160.618 228.800 C 184.580 228.800,185.910 228.838,186.538 229.531 C 187.351 230.430,187.552 252.594,186.761 254.073 C 186.415 254.720,186.436 254.855,186.861 254.713 C 187.294 254.569,187.421 252.098,187.506 242.098 L 187.611 229.663 186.422 228.815 C 185.239 227.973,185.091 227.969,160.370 228.018 C 145.711 228.048,135.357 227.917,135.140 227.700 C 134.930 227.490,134.821 223.024,134.886 217.266 C 134.949 211.729,134.865 207.200,134.700 207.200 C 134.535 207.200,134.400 211.844,134.400 217.520 M321.350 209.387 C 321.226 209.710,321.217 210.205,321.331 210.487 C 321.444 210.769,321.551 210.610,321.568 210.133 C 321.586 209.657,321.825 209.176,322.100 209.065 C 322.492 208.907,322.489 208.856,322.087 208.832 C 321.806 208.814,321.474 209.064,321.350 209.387 M325.999 209.273 C 326.769 209.494,327.513 209.860,327.653 210.086 C 327.793 210.312,328.153 210.406,328.454 210.293 C 329.106 210.050,326.374 208.782,325.313 208.836 C 324.921 208.856,325.230 209.053,325.999 209.273 M71.800 211.200 C 69.900 211.901,69.865 211.940,71.100 211.969 C 71.815 211.986,72.400 211.820,72.400 211.600 C 72.400 211.380,72.850 211.200,73.400 211.200 C 73.950 211.200,74.400 211.020,74.400 210.800 C 74.400 210.284,74.198 210.315,71.800 211.200 M331.152 212.390 C 332.279 213.528,333.200 214.806,333.200 215.230 C 333.200 215.653,333.380 216.000,333.600 216.000 C 333.820 216.000,334.000 216.270,334.000 216.600 C 334.000 216.930,334.180 217.200,334.400 217.200 C 334.620 217.200,334.800 217.560,334.800 218.000 C 334.800 218.440,334.980 218.800,335.200 218.800 C 335.420 218.800,335.600 219.160,335.600 219.600 C 335.600 220.040,335.780 220.400,336.000 220.400 C 336.220 220.400,336.400 220.760,336.400 221.200 C 336.400 221.640,336.580 222.000,336.800 222.000 C 337.474 222.000,334.357 215.324,332.822 213.480 C 331.246 211.587,330.941 211.294,330.052 210.823 C 329.512 210.537,329.984 211.210,331.152 212.390 M53.000 212.810 C 41.118 213.072,41.600 213.042,41.600 213.500 C 41.599 213.937,63.252 213.668,64.200 213.220 C 64.640 213.011,65.360 212.763,65.800 212.667 C 66.240 212.571,66.060 212.509,65.400 212.529 C 64.740 212.548,59.160 212.675,53.000 212.810 M320.800 233.120 C 320.800 248.702,320.681 253.959,320.320 254.320 C 319.964 254.676,316.107 254.800,305.440 254.800 C 296.404 254.800,291.182 254.941,291.420 255.178 C 291.993 255.748,319.144 255.816,319.711 255.249 C 319.958 255.002,320.394 254.800,320.680 254.800 C 321.100 254.800,321.200 250.728,321.200 233.600 C 321.200 221.940,321.110 212.400,321.000 212.400 C 320.890 212.400,320.800 221.724,320.800 233.120 M41.200 234.367 C 41.200 244.909,41.091 253.819,40.957 254.167 C 40.742 254.728,39.049 254.800,26.006 254.800 L 11.298 254.800 10.670 253.900 C 10.062 253.028,10.041 253.026,10.021 253.820 C 9.981 255.382,11.740 255.578,26.200 255.615 C 39.226 255.648,39.838 255.616,40.700 254.855 L 41.600 254.061 41.600 234.630 C 41.600 223.944,41.510 215.200,41.400 215.200 C 41.290 215.200,41.200 223.825,41.200 234.367 M371.200 218.756 C 371.200 218.951,371.515 219.450,371.900 219.864 C 372.285 220.278,372.465 220.442,372.300 220.228 C 372.135 220.015,372.000 219.516,372.000 219.120 C 372.000 218.724,371.820 218.400,371.600 218.400 C 371.380 218.400,371.200 218.560,371.200 218.756 M372.800 221.596 C 372.800 222.323,374.039 224.494,374.303 224.231 C 374.437 224.096,374.334 223.774,374.073 223.513 C 373.813 223.253,373.600 222.727,373.600 222.344 C 373.600 221.961,373.420 221.536,373.200 221.400 C 372.980 221.264,372.800 221.352,372.800 221.596 M337.200 222.776 C 337.200 222.983,337.380 223.264,337.600 223.400 C 337.820 223.536,338.000 223.997,338.000 224.424 C 338.000 224.851,338.180 225.200,338.400 225.200 C 338.937 225.200,338.907 224.967,338.190 223.580 C 337.574 222.389,337.200 222.085,337.200 222.776 M374.406 225.300 C 374.420 226.442,375.188 227.026,375.194 225.900 C 375.197 225.295,375.020 224.800,374.800 224.800 C 374.580 224.800,374.403 225.025,374.406 225.300 M338.800 226.314 C 338.800 226.581,338.980 226.800,339.200 226.800 C 339.420 226.800,339.600 227.250,339.600 227.800 C 339.600 228.350,339.792 228.800,340.027 228.800 C 340.283 228.800,340.346 228.440,340.184 227.900 C 339.855 226.803,338.800 225.594,338.800 226.314 M376.000 228.796 C 376.000 229.523,377.239 231.694,377.503 231.431 C 377.637 231.296,377.534 230.974,377.273 230.713 C 377.013 230.453,376.800 229.927,376.800 229.544 C 376.800 229.161,376.620 228.736,376.400 228.600 C 376.180 228.464,376.000 228.552,376.000 228.796 M377.600 232.420 C 377.600 233.201,378.928 235.404,379.097 234.904 C 379.189 234.631,378.987 234.130,378.649 233.792 C 378.311 233.454,378.136 232.912,378.260 232.588 C 378.384 232.265,378.286 232.000,378.043 232.000 C 377.799 232.000,377.600 232.189,377.600 232.420 M342.000 233.200 C 342.000 233.420,342.180 233.600,342.400 233.600 C 342.620 233.600,342.800 234.050,342.800 234.600 C 342.800 235.150,342.980 235.600,343.200 235.600 C 343.696 235.600,343.696 235.595,343.161 234.060 C 342.748 232.875,342.000 232.321,342.000 233.200 M379.200 235.874 C 379.200 236.024,379.542 236.879,379.960 237.774 C 380.379 238.668,381.044 240.105,381.438 240.967 C 381.853 241.875,382.232 242.304,382.338 241.987 C 382.438 241.686,382.313 241.371,382.060 241.287 C 381.807 241.202,381.600 240.824,381.600 240.446 C 381.600 239.579,380.698 237.607,380.300 237.603 C 380.135 237.601,380.000 237.150,380.000 236.600 C 380.000 236.050,379.820 235.600,379.600 235.600 C 379.380 235.600,379.200 235.723,379.200 235.874 M344.412 237.600 C 344.412 237.930,344.587 238.470,344.800 238.800 C 345.145 239.333,345.188 239.333,345.188 238.800 C 345.188 238.470,345.013 237.930,344.800 237.600 C 344.455 237.067,344.412 237.067,344.412 237.600 M345.777 240.900 C 346.088 241.615,346.439 242.515,346.558 242.900 C 346.677 243.285,346.962 243.600,347.191 243.600 C 347.464 243.600,347.477 243.360,347.230 242.900 C 347.022 242.515,346.617 241.615,346.329 240.900 C 346.040 240.185,345.672 239.600,345.509 239.600 C 345.346 239.600,345.467 240.185,345.777 240.900 M382.400 243.060 C 382.400 243.309,382.803 244.186,385.608 250.036 C 386.304 251.486,386.811 253.106,386.736 253.636 L 386.600 254.600 369.953 254.704 C 355.267 254.796,353.244 254.735,352.787 254.184 C 352.502 253.840,351.568 252.173,350.712 250.480 C 349.847 248.767,349.268 247.933,349.408 248.600 C 349.546 249.260,349.826 249.860,350.030 249.933 C 350.233 250.007,350.400 250.286,350.400 250.554 C 350.400 251.263,351.349 253.193,351.700 253.197 C 351.865 253.199,352.000 253.560,352.000 254.000 C 352.000 254.440,352.234 254.800,352.520 254.800 C 352.806 254.800,353.236 254.996,353.475 255.235 C 353.774 255.534,358.913 255.658,370.025 255.633 C 390.104 255.588,389.247 255.968,385.545 248.746 C 385.135 247.946,384.800 247.001,384.800 246.646 C 384.800 246.290,384.665 245.999,384.500 245.997 C 384.141 245.993,383.200 244.056,383.200 243.320 C 383.200 243.034,383.020 242.800,382.800 242.800 C 382.580 242.800,382.400 242.917,382.400 243.060 M347.474 244.552 C 347.337 244.909,347.399 245.200,347.613 245.200 C 347.826 245.200,348.000 245.448,348.000 245.751 C 348.000 246.054,348.270 246.526,348.600 246.800 C 349.374 247.442,349.356 247.264,348.461 245.424 C 347.904 244.278,347.661 244.064,347.474 244.552 M290.000 253.376 C 290.000 253.913,290.147 254.444,290.328 254.555 C 290.508 254.667,290.577 254.227,290.482 253.579 C 290.272 252.149,290.000 252.035,290.000 253.376 M104.633 255.193 C 105.191 255.751,185.186 255.774,185.745 255.215 C 186.032 254.928,173.499 254.800,145.200 254.800 C 118.410 254.800,104.376 254.936,104.633 255.193 M8.100 271.865 C 7.825 271.976,7.605 272.367,7.612 272.733 C 7.623 273.335,7.664 273.332,8.032 272.700 C 8.419 272.035,17.973 272.000,199.771 272.000 L 391.102 272.000 391.730 272.900 C 392.186 273.554,392.364 273.630,392.379 273.180 C 392.391 272.839,392.184 272.344,391.920 272.080 C 391.438 271.598,9.293 271.384,8.100 271.865 M6.978 279.200 C 6.966 282.280,7.101 284.800,7.278 284.800 C 7.455 284.800,7.600 282.280,7.600 279.200 C 7.600 276.120,7.465 273.600,7.300 273.600 C 7.135 273.600,6.990 276.120,6.978 279.200 M392.134 278.800 C 392.134 280.450,392.205 281.125,392.291 280.300 C 392.378 279.475,392.378 278.125,392.291 277.300 C 392.205 276.475,392.134 277.150,392.134 278.800 M391.791 284.933 C 391.625 285.337,391.109 285.820,390.644 286.008 C 389.921 286.300,389.904 286.353,390.529 286.375 C 391.437 286.406,392.527 285.361,392.279 284.696 C 392.157 284.370,391.990 284.451,391.791 284.933 M7.600 285.512 C 7.600 286.056,9.314 286.579,10.083 286.271 C 10.367 286.157,10.141 286.049,9.580 286.032 C 9.019 286.014,8.344 285.784,8.080 285.520 C 7.715 285.155,7.600 285.153,7.600 285.512 " stroke="none" fill="#84ac94" fill-rule="evenodd"></path><path id="path4" d="M7.760 117.800 C 7.761 121.100,7.822 122.397,7.898 120.682 C 7.973 118.967,7.972 116.267,7.897 114.682 C 7.821 113.097,7.759 114.500,7.760 117.800 M391.600 117.757 C 391.600 120.997,391.741 123.560,391.913 123.454 C 392.275 123.230,392.210 112.477,391.844 112.111 C 391.710 111.977,391.600 114.517,391.600 117.757 M9.269 124.602 C 9.532 124.866,390.470 124.863,390.733 124.600 C 390.843 124.490,305.013 124.400,200.000 124.400 C 94.987 124.400,9.158 124.491,9.269 124.602 M38.400 140.802 L 13.800 141.009 39.967 141.105 C 54.358 141.157,66.058 141.134,65.967 141.053 C 65.511 140.651,61.088 140.611,38.400 140.802 M104.264 141.129 C 103.305 142.189,103.446 142.554,104.433 141.567 C 104.892 141.108,105.191 140.657,105.098 140.564 C 105.005 140.471,104.630 140.725,104.264 141.129 M343.600 140.776 C 344.139 141.146,348.368 141.411,347.967 141.050 C 347.875 140.968,346.720 140.780,345.400 140.632 C 343.704 140.443,343.176 140.486,343.600 140.776 M10.623 141.689 C 9.950 142.650,9.631 252.925,10.300 253.338 C 10.465 253.440,10.553 228.603,10.496 198.143 C 10.386 139.741,10.334 141.384,12.300 141.087 L 13.400 140.920 12.323 140.860 C 11.616 140.821,11.031 141.106,10.623 141.689 M125.930 141.100 C 136.342 141.159,153.262 141.159,163.530 141.100 C 173.799 141.040,165.280 140.992,144.600 140.992 C 123.920 140.992,115.519 141.041,125.930 141.100 M218.530 141.100 C 229.052 141.159,246.152 141.159,256.530 141.100 C 266.909 141.041,258.300 140.992,237.400 140.992 C 216.500 140.992,208.009 141.041,218.530 141.100 M305.929 141.100 C 312.820 141.161,323.980 141.161,330.729 141.100 C 337.478 141.038,331.840 140.988,318.200 140.988 C 304.560 140.988,299.038 141.038,305.929 141.100 M185.070 141.600 C 185.252 141.930,185.496 147.060,185.613 153.000 L 185.825 163.800 185.913 153.176 C 185.988 144.019,185.913 142.446,185.370 141.776 C 185.024 141.349,184.889 141.270,185.070 141.600 M356.833 142.143 C 356.925 142.221,357.630 142.401,358.400 142.542 C 359.385 142.723,359.622 142.682,359.200 142.406 C 358.658 142.050,356.437 141.803,356.833 142.143 M103.794 197.400 C 103.794 226.440,103.842 238.261,103.900 223.669 C 103.958 209.077,103.958 185.317,103.900 170.869 C 103.842 156.421,103.794 168.360,103.794 197.400 M370.600 148.800 C 371.683 149.900,372.660 150.800,372.770 150.800 C 372.880 150.800,372.083 149.900,371.000 148.800 C 369.917 147.700,368.940 146.800,368.830 146.800 C 368.720 146.800,369.517 147.700,370.600 148.800 M46.915 164.296 C 48.188 164.376,50.168 164.375,51.315 164.294 C 52.462 164.214,51.420 164.149,49.000 164.150 C 46.580 164.151,45.642 164.216,46.915 164.296 M328.120 164.298 C 330.055 164.372,333.115 164.371,334.920 164.297 C 336.724 164.223,335.140 164.163,331.400 164.164 C 327.660 164.164,326.184 164.225,328.120 164.298 M147.700 165.100 C 154.465 165.161,165.535 165.161,172.300 165.100 C 179.065 165.038,173.530 164.988,160.000 164.988 C 146.470 164.988,140.935 165.038,147.700 165.100 M240.500 165.100 C 247.045 165.161,257.755 165.161,264.300 165.100 C 270.845 165.038,265.490 164.988,252.400 164.988 C 239.310 164.988,233.955 165.038,240.500 165.100 M134.165 173.200 C 134.165 177.050,134.225 178.625,134.298 176.700 C 134.371 174.775,134.371 171.625,134.298 169.700 C 134.225 167.775,134.165 169.350,134.165 173.200 M94.101 170.200 C 94.105 171.080,94.187 171.393,94.283 170.895 C 94.379 170.398,94.375 169.678,94.275 169.295 C 94.175 168.913,94.096 169.320,94.101 170.200 M379.324 172.600 C 379.326 173.920,379.401 174.412,379.490 173.693 C 379.579 172.974,379.577 171.894,379.486 171.293 C 379.395 170.692,379.322 171.280,379.324 172.600 M94.101 181.400 C 94.105 182.280,94.187 182.593,94.283 182.095 C 94.379 181.598,94.375 180.878,94.275 180.495 C 94.175 180.113,94.096 180.520,94.101 181.400 M134.976 182.970 C 135.665 183.529,138.207 183.589,157.376 183.507 L 179.000 183.414 157.200 183.207 C 145.210 183.093,135.130 182.852,134.800 182.670 C 134.470 182.489,134.549 182.624,134.976 182.970 M228.538 183.294 C 228.792 183.456,238.720 183.551,250.600 183.505 C 262.480 183.460,269.500 183.373,266.200 183.313 C 251.220 183.040,228.119 183.028,228.538 183.294 M181.774 195.000 C 181.775 200.720,181.831 203.004,181.899 200.076 C 181.968 197.148,181.967 192.468,181.899 189.676 C 181.830 186.884,181.774 189.280,181.774 195.000 M325.500 187.097 C 327.095 187.173,329.705 187.173,331.300 187.097 C 332.895 187.021,331.590 186.959,328.400 186.959 C 325.210 186.959,323.905 187.021,325.500 187.097 M51.300 189.476 C 51.685 189.576,52.315 189.576,52.700 189.476 C 53.085 189.375,52.770 189.293,52.000 189.293 C 51.230 189.293,50.915 189.375,51.300 189.476 M135.338 206.706 C 135.085 206.868,145.140 206.965,157.683 206.922 C 170.226 206.879,180.589 206.744,180.711 206.622 C 181.048 206.285,135.869 206.369,135.338 206.706 M227.776 207.022 C 227.029 207.621,227.034 207.628,227.891 207.213 C 228.499 206.919,235.876 206.790,251.039 206.810 C 263.279 206.826,273.393 206.740,273.514 206.620 C 274.129 206.005,228.546 206.406,227.776 207.022 M364.400 209.800 C 365.146 210.570,365.847 211.200,365.957 211.200 C 366.067 211.200,365.546 210.570,364.800 209.800 C 364.054 209.030,363.353 208.400,363.243 208.400 C 363.133 208.400,363.654 209.030,364.400 209.800 M134.169 217.200 C 134.169 221.710,134.227 223.555,134.298 221.300 C 134.370 219.045,134.370 215.355,134.298 213.100 C 134.227 210.845,134.169 212.690,134.169 217.200 M320.901 211.000 C 320.905 211.880,320.987 212.193,321.083 211.695 C 321.179 211.198,321.175 210.478,321.075 210.095 C 320.975 209.713,320.896 210.120,320.901 211.000 M328.400 209.779 C 328.400 209.889,328.940 210.259,329.600 210.600 C 330.260 210.941,330.800 211.131,330.800 211.021 C 330.800 210.911,330.260 210.541,329.600 210.200 C 328.940 209.859,328.400 209.669,328.400 209.779 M68.100 211.876 C 68.485 211.976,69.115 211.976,69.500 211.876 C 69.885 211.775,69.570 211.693,68.800 211.693 C 68.030 211.693,67.715 211.775,68.100 211.876 M62.100 212.676 C 62.485 212.776,63.115 212.776,63.500 212.676 C 63.885 212.575,63.570 212.493,62.800 212.493 C 62.030 212.493,61.715 212.575,62.100 212.676 M334.003 215.290 C 334.001 215.450,334.359 216.170,334.799 216.890 C 335.238 217.611,335.596 218.020,335.596 217.800 C 335.595 217.580,335.237 216.860,334.800 216.200 C 334.363 215.540,334.004 215.131,334.003 215.290 M227.264 226.451 C 227.221 227.415,227.435 228.086,227.900 228.451 C 228.510 228.929,228.540 228.922,228.133 228.398 C 227.876 228.068,227.589 227.168,227.497 226.398 L 227.328 225.000 227.264 226.451 M147.900 229.100 C 154.555 229.161,165.445 229.161,172.100 229.100 C 178.755 229.038,173.310 228.988,160.000 228.988 C 146.690 228.988,141.245 229.038,147.900 229.100 M240.929 229.100 C 247.710 229.161,258.690 229.161,265.329 229.100 C 271.968 229.038,266.420 228.988,253.000 228.988 C 239.580 228.988,234.148 229.038,240.929 229.100 M186.977 241.800 C 186.977 248.400,187.032 251.156,187.099 247.925 C 187.166 244.693,187.166 239.293,187.099 235.925 C 187.032 232.556,186.977 235.200,186.977 241.800 M7.688 279.020 C 7.602 284.932,7.796 286.000,8.956 286.000 C 9.175 286.000,9.051 285.775,8.683 285.500 C 8.118 285.079,7.994 284.056,7.895 279.000 L 7.777 273.000 7.688 279.020 M391.600 278.957 C 391.600 282.197,391.742 284.760,391.915 284.653 C 392.303 284.413,392.270 273.736,391.880 273.347 C 391.726 273.193,391.600 275.717,391.600 278.957 M105.333 285.900 C 157.656 285.956,243.156 285.956,295.333 285.900 C 347.510 285.844,304.700 285.798,200.200 285.798 C 95.700 285.798,53.010 285.844,105.333 285.900 " stroke="none" fill="#7cac94" fill-rule="evenodd"></path></g></svg>